<?xml version="1.0" encoding="UTF-8"?><svg id="Capa_2" xmlns="http://www.w3.org/2000/svg" viewBox="0 0 14.54 14.54"><defs><style>.cls-1{fill:#397e91;stroke-width:0px;}</style></defs><g id="Hover-Ejemplo"><path class="cls-1" d="M13.86,10.09V2c0-.48-.39-.87-.87-.87h-2.06v-.28c0-.47-.38-.85-.85-.85s-.85.38-.85.85v.28h-4.6v-.28c0-.47-.38-.85-.85-.85s-.85.38-.85.85v.28H.87c-.48,0-.87.39-.87.87v10.53c0,.48.39.87.87.87h3.87c.16,0,.28-.13.28-.28s-.13-.28-.28-.28H.87c-.16,0-.3-.13-.3-.3V2c0-.16.13-.3.3-.3h2.06v.28c0,.47.38.85.85.85s.85-.38.85-.85v-.28h4.6v.28c0,.47.38.85.85.85s.85-.38.85-.85v-.28h2.06c.16,0,.3.13.3.3v1.41H2.56c-.16,0-.28.13-.28.28s.13.28.28.28h10.73v5.63c-.24-.15-.51-.27-.79-.34v-4.22c0-.16-.13-.28-.28-.28H1.65c-.16,0-.28.13-.28.28v6.7c0,.16.13.28.28.28h7.56c.02.28.08.55.18.79h-2.37c-.16,0-.28.13-.28.28s.13.28.28.28h2.68c.48.69,1.28,1.14,2.18,1.14,1.47,0,2.67-1.2,2.67-2.67,0-.68-.26-1.31-.68-1.78h0ZM4.06,1.99c0,.16-.13.28-.28.28s-.28-.13-.28-.28V.85c0-.16.13-.28.28-.28s.28.13.28.28v1.14ZM10.36,1.99c0,.16-.13.28-.28.28s-.28-.13-.28-.28V.85c0-.16.13-.28.28-.28s.28.13.28.28v1.14ZM11.87,9.2c-.13,0-.26,0-.39.03h-1.1v-1.65h1.54v1.62s-.04,0-.06,0h0ZM9.23,11.47h-.96v-1.68h1.54v.37c-.3.37-.51.81-.58,1.3h0ZM1.93,7.58h1.54v1.65h-1.54v-1.65ZM4.04,7.58h1.54v1.65h-1.54v-1.65ZM8.27,7.58h1.54v1.65h-1.54v-1.65ZM7.7,9.23h-1.54v-1.65h1.54v1.65ZM8.27,7.01v-1.68h1.54v1.68h-1.54ZM7.7,7.01h-1.54v-1.68h1.54v1.68ZM5.59,7.01h-1.54v-1.68h1.54v1.68ZM5.59,9.8v1.68h-1.54v-1.68h1.54ZM6.16,9.8h1.54v1.68h-1.54v-1.68ZM11.92,7.01h-1.54v-1.68h1.54v1.68ZM3.48,5.34v1.68h-1.54v-1.68h1.54ZM1.93,9.8h1.54v1.68h-1.54v-1.68ZM11.87,13.97c-1.16,0-2.1-.94-2.1-2.1s.94-2.1,2.1-2.1,2.1.94,2.1,2.1-.94,2.1-2.1,2.1h0Z"/><path class="cls-1" d="M12.69,11.18l-.88.88-.39-.39c-.11-.11-.29-.11-.4,0-.11.11-.11.29,0,.4l.59.59c.05.05.13.08.2.08s.15-.03.2-.08l1.08-1.08c.11-.11.11-.29,0-.4-.11-.11-.29-.11-.4,0h0Z"/><path class="cls-1" d="M5.87,12.83c-.07,0-.15.03-.2.08-.05.05-.08.13-.08.2s.03.15.08.2c.05.05.13.08.2.08s.15-.03.2-.08c.05-.05.08-.13.08-.2s-.03-.15-.08-.2c-.05-.05-.13-.08-.2-.08h0Z"/><path class="cls-1" d="M1.62,3.89c.05-.05.08-.13.08-.2s-.03-.15-.08-.2c-.05-.05-.13-.08-.2-.08s-.15.03-.2.08c-.05.05-.08.13-.08.2s.03.15.08.2c.05.05.13.08.2.08s.15-.03.2-.08h0Z"/></g></svg>