<?xml version="1.0" encoding="utf-8"?>
<!-- Generator: Adobe Illustrator 28.1.0, SVG Export Plug-In . SVG Version: 6.00 Build 0)  -->
<svg version="1.1" id="Layer_1" xmlns="http://www.w3.org/2000/svg" xmlns:xlink="http://www.w3.org/1999/xlink" x="0px" y="0px"
	 viewBox="0 0 256 213.3" style="enable-background:new 0 0 256 213.3;" xml:space="preserve">
<style type="text/css">
	.st0{fill:#190B2B;}
</style>
<g>
	<g>
		<path class="st0" d="M149.3,213.3c-6.4,0-10.7-2.1-14.9-6.4c-8.5-8.5-8.5-21.3,0-29.9l70.4-70.4l-70.4-70.4
			c-8.5-8.5-8.5-21.3,0-29.9s21.3-8.5,29.9,0l85.3,85.3c8.5,8.5,8.5,21.3,0,29.9l-85.3,85.3C160,211.2,155.7,213.3,149.3,213.3
			L149.3,213.3z"/>
	</g>
	<g>
		<path class="st0" d="M21.3,213.3c-6.4,0-10.7-2.1-14.9-6.4c-8.5-8.5-8.5-21.3,0-29.9l70.4-70.4L6.4,36.3c-8.5-8.5-8.5-21.3,0-29.9
			s21.3-8.5,29.9,0l85.3,85.3c8.5,8.5,8.5,21.3,0,29.9l-85.3,85.3C32,211.2,27.7,213.3,21.3,213.3L21.3,213.3z"/>
	</g>
</g>
</svg>
