<?xml version="1.0" encoding="utf-8"?>
<!-- Generator: Adobe Illustrator 28.1.0, SVG Export Plug-In . SVG Version: 6.00 Build 0)  -->
<svg version="1.1" id="Capa_1" xmlns="http://www.w3.org/2000/svg" xmlns:xlink="http://www.w3.org/1999/xlink" x="0px" y="0px"
	 viewBox="0 0 400 264.2" style="enable-background:new 0 0 400 264.2;" xml:space="preserve">
<style type="text/css">
	.st0{fill:#190B2B;}
</style>
<path class="st0" d="M398.6,195.7l0.1-0.1c0.1-0.1,0.2-0.3,0.3-0.4c0-0.1,0.1-0.2,0.1-0.2c0.1-0.1,0.1-0.3,0.2-0.4
	c0.1-0.1,0.1-0.2,0.2-0.3s0.1-0.3,0.1-0.4c0-0.1,0.1-0.2,0.1-0.3c0.2-0.8,0.4-1.6,0.4-2.5v-26.5c0-27.8-18.7-51.4-44.2-58.7
	c10.7-9.7,17.6-23.6,17.6-38.7c0-28.4-24-52.3-52.3-52.3c-28.4,0-52.3,24-52.3,52.3c0,15.2,6.8,29,17.5,38.7
	c-11.6,3.4-22,10.1-29.9,19.6c-5-2.3-10.3-4.1-15.8-5.3c16-12.4,26.5-31.7,26.5-52.9C267.1,30.7,236.4,0,200,0s-67.1,30.7-67.1,67.1
	c0,21.2,10.5,40.5,26.5,52.9c-5.5,1.2-10.8,3-15.8,5.3c-7.9-9.4-18.3-16.2-29.9-19.6c10.7-9.7,17.5-23.5,17.5-38.7
	c0-28.4-24-52.3-52.3-52.3S26.6,38.7,26.6,67c0,15.2,6.9,29.1,17.6,38.7C18.7,113.2,0,136.7,0,164.6V191c0,0.6,0,1.1,0.2,1.7
	c0,0.1,0,0.2,0.1,0.3c0,0.2,0.1,0.3,0.1,0.5c0.1,0.2,0.1,0.4,0.2,0.6c0,0,0,0.1,0.1,0.1c0.1,0.2,0.2,0.4,0.3,0.6c0,0,0,0.1,0.1,0.1
	c0.1,0.2,0.2,0.4,0.3,0.5l0.1,0.1c0.1,0.2,0.2,0.3,0.3,0.5c0,0.1,0.1,0.1,0.1,0.2c0.1,0.2,0.3,0.3,0.4,0.5l0.1,0.1
	c0.6,0.6,1.3,1.1,2,1.5c16.3,8.7,33.8,14.4,52,17c0.4,0.1,0.8,0.1,1.2,0.1c3.9,0,7.3-2.9,7.9-6.9c0.6-4.4-2.4-8.4-6.8-9.1
	c-14.9-2.1-29.2-6.6-42.6-13.2v-21.7c0-24.9,20.3-45.2,45.2-45.2c0.1,0,0.1,0,0.2,0h35.3l0,0l0,0c12.6,0,24.4,5.2,32.9,14.2
	c-19.4,14.4-32,37.5-32,63.4v35.4c0,0.8,0.1,1.7,0.4,2.4c0,0.1,0.1,0.2,0.1,0.3s0.1,0.3,0.1,0.4c0.1,0.1,0.1,0.3,0.2,0.4
	c0.1,0.1,0.1,0.2,0.2,0.3s0.1,0.2,0.2,0.3s0.1,0.2,0.2,0.4c0.1,0.1,0.1,0.2,0.2,0.2c0.1,0.1,0.2,0.3,0.3,0.4c0,0.1,0.1,0.1,0.1,0.1
	c0.1,0.1,0.3,0.3,0.4,0.4c0,0,0,0,0.1,0c0.5,0.5,1.1,0.9,1.7,1.3c0,0,0.1,0,0.1,0.1l0,0c30.8,16.4,64.5,24.6,98.3,24.6l0,0
	c33.8,0,67.5-8.2,98.3-24.6c2.8-1.5,4.3-4.4,4.2-7.4V197c0-26-12.6-49-32-63.4c8.4-9,20.3-14.2,32.9-14.2l0,0l0,0H339
	c0.1,0,0.1,0,0.2,0c24.9,0,45.2,20.3,45.2,45.2v21.7c-13.4,6.6-27.7,11-42.6,13.2c-4.4,0.6-7.4,4.7-6.8,9.1c0.6,4,4,6.9,7.9,6.9
	c0.4,0,0.8,0,1.2-0.1c18.3-2.6,35.8-8.4,52.1-17.1l0,0l0,0C397,197.5,397.9,196.7,398.6,195.7z M78.9,30.8
	c19.7,0,36.3,16.6,36.3,36.3s-16.6,36.3-36.3,36.3S42.6,86.8,42.6,67.1S59.2,30.8,78.9,30.8z M148.9,67.1
	c0-27.7,23.4-51.1,51.1-51.1s51.1,23.4,51.1,51.1s-23.4,51.1-51.1,51.1S148.9,94.8,148.9,67.1z M286.5,197v30.6
	c-54.5,27.4-118.5,27.4-173,0V197c0-34.7,28.2-62.9,62.9-62.9h47.3C258.3,134.2,286.5,162.4,286.5,197z M321.1,30.8
	c19.7,0,36.3,16.6,36.3,36.3s-16.6,36.3-36.3,36.3c-19.7,0-36.3-16.6-36.3-36.3S301.4,30.8,321.1,30.8z"/>
</svg>
