<?xml version="1.0" encoding="UTF-8"?><svg id="Capa_2" xmlns="http://www.w3.org/2000/svg" viewBox="0 0 24.45 36.02"><defs><style>.cls-1{fill:#190b2b;stroke:#190b2b;stroke-miterlimit:10;stroke-width:.5px;}</style></defs><g id="Textos_Y_Lineas"><path class="cls-1" d="M21.82,18.82c-.51,0-.99.16-1.4.45-.24-1.06-1.19-1.86-2.32-1.86-.56,0-1.1.2-1.52.55-.36-.85-1.21-1.45-2.19-1.45-.48,0-.95.14-1.34.41v-6.6c0-1.3-1.04-2.38-2.32-2.41-.66-.02-1.28.23-1.74.7-.45.45-.7,1.05-.7,1.68v14.97s0,.05-.05.07c-.05.02-.07,0-.08-.02l-3.57-4.57c-.46-.59-1.16-.93-1.92-.93-.5,0-.98.15-1.4.44-.54.38-.9.95-1,1.61-.1.65.06,1.31.46,1.84l2.7,3.6c.1.14.26.21.42.21.11,0,.22-.03.31-.1.23-.17.28-.5.1-.73l-2.7-3.6c-.23-.3-.32-.68-.26-1.05.06-.37.26-.7.57-.92.24-.17.51-.25.8-.25.43,0,.83.19,1.1.53l3.57,4.57c.3.38.78.52,1.24.37.46-.16.75-.57.75-1.05v-14.97c0-.36.14-.69.39-.95.26-.26.61-.4.98-.39.72.02,1.3.63,1.3,1.37,0,2.55,0,9.83,0,12.25,0,.29.23.52.52.52s.52-.23.52-.52v-3.69c0-.36.14-.69.39-.95.25-.25.59-.39.94-.39.74,0,1.34.6,1.34,1.34v3.69c0,.29.23.52.52.52s.52-.23.52-.52v-2.79c0-.36.14-.69.39-.95.25-.25.59-.39.94-.39.74,0,1.34.6,1.34,1.34,0,.8,0,2.51,0,3.29,0,.29.23.52.52.52s.52-.23.52-.52v-1.89c0-.36.14-.69.39-.95.25-.25.59-.39.95-.39.74,0,1.34.6,1.34,1.34v8.32c0,.87-.25,1.71-.72,2.43-.55.85-1.31,1.55-2.19,2.03-.89.48-1.89.74-2.9.74h-4.01c-1.9,0-3.71-.91-4.85-2.43l-2.77-3.69c-.17-.23-.5-.28-.73-.1-.23.17-.28.5-.1.73l2.77,3.69c1.33,1.78,3.46,2.84,5.68,2.84h4.01c1.18,0,2.36-.3,3.4-.86,1.04-.57,1.93-1.39,2.57-2.38.58-.9.88-1.93.88-3v-8.32c0-1.31-1.07-2.38-2.38-2.38h0Z"/><path class="cls-1" d="M16.21,6.82c0,1.67-.75,3.23-2.05,4.29-.22.18-.26.51-.08.73.1.13.25.19.4.19.12,0,.23-.04.33-.12,1.55-1.26,2.43-3.11,2.43-5.1,0-.72-.12-1.43-.35-2.1-.09-.27-.39-.42-.66-.33-.27.09-.42.39-.33.66.19.57.29,1.16.29,1.77h0Z"/><path class="cls-1" d="M6.54,11.92c.1.08.21.12.33.12.15,0,.3-.07.4-.19.18-.22.15-.55-.08-.73-1.3-1.06-2.05-2.62-2.05-4.29,0-3.05,2.48-5.53,5.53-5.53,1.56,0,3.06.67,4.1,1.83.19.21.52.23.73.04.21-.19.23-.52.04-.73-1.24-1.38-3.02-2.17-4.88-2.17-3.62,0-6.57,2.95-6.57,6.57,0,1.98.89,3.84,2.43,5.1Z"/><path class="cls-1" d="M13.81,9c.08.04.16.06.24.06.19,0,.37-.1.46-.28.31-.6.47-1.27.47-1.95,0-2.37-1.93-4.3-4.3-4.3s-4.3,1.93-4.3,4.3c0,.68.16,1.33.46,1.94.13.26.44.36.7.23.26-.13.36-.44.23-.7-.23-.46-.35-.95-.35-1.47,0-1.8,1.46-3.26,3.26-3.26s3.26,1.46,3.26,3.26c0,.52-.12,1.02-.35,1.48-.13.26-.03.57.23.7Z"/></g></svg>