<?xml version="1.0" encoding="UTF-8"?><svg id="Capa_2" xmlns="http://www.w3.org/2000/svg" viewBox="0 0 14.67 14.54"><defs><style>.cls-1{fill:#397e91;stroke-width:0px;}</style></defs><g id="Hover-Ejemplo"><path class="cls-1" d="M14.38,1.38h-1.71l-1.06-.56c-.36-.19-.77-.27-1.18-.23l-1.31.12-.78-.65c-.12-.1-.3-.08-.4.04L3.51,5.44c-.05.06-.07.13-.06.21,0,.08.04.15.1.19l.95.79H.29c-.16,0-.29.13-.29.29v1.34c0,.16.13.29.29.29h.39v5.71c0,.16.13.29.29.29h11.31c.16,0,.29-.13.29-.29v-5.71h.38c.16,0,.29-.13.29-.29v-1.34c0-.16-.13-.29-.29-.29h-5.16l1.57-1.89c.77.37,1.66.38,2.45.05l1.09-.46h1.5c.16,0,.29-.13.29-.29V1.67c0-.16-.13-.29-.29-.29h0ZM11.98,13.96H1.25v-5.43h10.73v5.43ZM12.65,7.96H.57v-.76h12.07v.76ZM7.03,6.63h-1.64l-1.26-1.05L8.19.69l2.23,1.85c-.16.18-.42.26-.66.2l-.83-.3c-.39-.14-.85.06-1.06.41-.27.45-.14,1.04.34,1.29l.62.33-1.79,2.16ZM14.1,3.75h-1.27s-.08,0-.11.02l-1.15.48c-.72.3-1.48.22-2.16-.13l-.93-.49c-.18-.11-.23-.31-.12-.49.08-.13.24-.2.39-.16l.83.3c.31.11.69.05.97-.12.2-.12.34-.3.49-.48.1-.12.08-.3-.04-.4l-1.27-1.05.74-.07c.3-.03.6.03.86.17l1.13.59s.09.03.13.03h1.5v1.8Z"/><path class="cls-1" d="M2.94,12.99h7.35c.16,0,.29-.13.29-.29v-2.98c0-.16-.13-.29-.29-.29h-2.37c-.16,0-.29.13-.29.29s.13.29.29.29h2.08v2.41H3.23v-2.41h2.18c.16,0,.29-.13.29-.29s-.13-.29-.29-.29h-2.47c-.16,0-.29.13-.29.29v2.98c0,.16.13.29.29.29h0Z"/><path class="cls-1" d="M6.51,9.96c.1.07.24.06.34-.02.09-.08.13-.21.09-.32-.04-.11-.15-.19-.27-.19s-.23.08-.27.19c-.04.12,0,.26.11.33h0Z"/></g></svg>