<?xml version="1.0" encoding="UTF-8"?>
<svg id="Capa_2" data-name="Capa 2" xmlns="http://www.w3.org/2000/svg" viewBox="0 0 169.61 172.41">
  <defs>
    <style>
      .cls-1 {
        fill: #ffab4c;
        stroke: #190b2b;
        stroke-linecap: round;
        stroke-linejoin: round;
      }
    </style>
  </defs>
  <g id="Argelia">
    <path id="DZ" class="cls-1" d="M136.89,2.13l-1.48,4.88,1.48,9.01-1.63,7.83-4.73,5.32.89,7.09,6.65,5.76.15,2.22,5.02,3.84,3.84,16.99,2.81,8.42.59,4.43-1.18,7.68.59,4.43-.89,5.17.89,5.91-3.25,3.99,5.02,6.95.3,3.99,3.1,5.32,3.69-1.77,6.65,4.43,3.69,5.91-27.78,18.18-23.64,18.62-11.53,4.14-9.16,1.03-.15-6.06-3.84-1.63-5.17-2.66-1.92-4.43-27.63-20.69-27.49-20.69L.5,92.71l.15-1.77.15-.59.15-11.23,13.15-7.09,7.98-1.48,6.65-2.51,3.1-4.73,9.46-3.69.44-7.09,4.58-.89,3.69-3.4,10.49-1.63,1.48-3.69-2.07-2.07-2.81-10.05-.44-5.76-2.81-6.06,7.54-5.17,8.57-1.63,4.88-3.84,7.54-2.96,13.3-1.63,13-.74,3.99,1.33,7.24-3.69,8.42-.15,3.25,2.22,5.32-.59h0Z"/>
  </g>
</svg>